<mxfile host="app.diagrams.net" modified="2020-12-09T23:53:26.383Z" agent="5.0 (Windows)" etag="WarOchq_jXdeeE_obgJR" version="14.0.0" type="github">
  <diagram id="l3JJTQxZSckO6577EaDO" name="Page-1">
    <mxGraphModel dx="1422" dy="791" grid="1" gridSize="10" guides="1" tooltips="1" connect="1" arrows="1" fold="1" page="1" pageScale="1" pageWidth="827" pageHeight="1169" math="0" shadow="0">
      <root>
        <mxCell id="0" />
        <mxCell id="1" parent="0" />
        <mxCell id="0bjM78PT32i9VQrctK_N-57" style="edgeStyle=orthogonalEdgeStyle;rounded=0;orthogonalLoop=1;jettySize=auto;html=1;" edge="1" parent="1" source="0bjM78PT32i9VQrctK_N-1" target="0bjM78PT32i9VQrctK_N-3">
          <mxGeometry relative="1" as="geometry" />
        </mxCell>
        <mxCell id="0bjM78PT32i9VQrctK_N-1" value="Пользователи" style="rounded=0;whiteSpace=wrap;html=1;" vertex="1" parent="1">
          <mxGeometry x="140" y="550" width="120" height="60" as="geometry" />
        </mxCell>
        <mxCell id="0bjM78PT32i9VQrctK_N-58" style="edgeStyle=orthogonalEdgeStyle;rounded=0;orthogonalLoop=1;jettySize=auto;html=1;" edge="1" parent="1" source="0bjM78PT32i9VQrctK_N-3" target="0bjM78PT32i9VQrctK_N-4">
          <mxGeometry relative="1" as="geometry" />
        </mxCell>
        <mxCell id="0bjM78PT32i9VQrctK_N-3" value="Запрашивает" style="rhombus;whiteSpace=wrap;html=1;" vertex="1" parent="1">
          <mxGeometry x="150" y="420" width="100" height="60" as="geometry" />
        </mxCell>
        <mxCell id="0bjM78PT32i9VQrctK_N-4" value="Книги" style="rounded=0;whiteSpace=wrap;html=1;" vertex="1" parent="1">
          <mxGeometry x="510" y="390" width="70" height="30" as="geometry" />
        </mxCell>
        <mxCell id="0bjM78PT32i9VQrctK_N-20" style="edgeStyle=orthogonalEdgeStyle;rounded=0;orthogonalLoop=1;jettySize=auto;html=1;" edge="1" parent="1" source="0bjM78PT32i9VQrctK_N-5" target="0bjM78PT32i9VQrctK_N-14">
          <mxGeometry relative="1" as="geometry" />
        </mxCell>
        <mxCell id="0bjM78PT32i9VQrctK_N-5" value="Категории" style="rounded=0;whiteSpace=wrap;html=1;" vertex="1" parent="1">
          <mxGeometry x="520" y="625" width="90" height="25" as="geometry" />
        </mxCell>
        <mxCell id="0bjM78PT32i9VQrctK_N-19" style="edgeStyle=orthogonalEdgeStyle;rounded=0;orthogonalLoop=1;jettySize=auto;html=1;entryX=0.75;entryY=1;entryDx=0;entryDy=0;" edge="1" parent="1" source="0bjM78PT32i9VQrctK_N-7" target="0bjM78PT32i9VQrctK_N-4">
          <mxGeometry relative="1" as="geometry" />
        </mxCell>
        <mxCell id="0bjM78PT32i9VQrctK_N-7" value="Включает" style="rhombus;whiteSpace=wrap;html=1;" vertex="1" parent="1">
          <mxGeometry x="570" y="500" width="80" height="40" as="geometry" />
        </mxCell>
        <mxCell id="0bjM78PT32i9VQrctK_N-23" style="edgeStyle=orthogonalEdgeStyle;rounded=0;orthogonalLoop=1;jettySize=auto;html=1;entryX=0.5;entryY=0;entryDx=0;entryDy=0;" edge="1" parent="1" source="0bjM78PT32i9VQrctK_N-8" target="0bjM78PT32i9VQrctK_N-4">
          <mxGeometry relative="1" as="geometry" />
        </mxCell>
        <mxCell id="0bjM78PT32i9VQrctK_N-8" value="Название" style="ellipse;whiteSpace=wrap;html=1;" vertex="1" parent="1">
          <mxGeometry x="725" y="200" width="70" height="50" as="geometry" />
        </mxCell>
        <mxCell id="0bjM78PT32i9VQrctK_N-22" style="edgeStyle=orthogonalEdgeStyle;rounded=0;orthogonalLoop=1;jettySize=auto;html=1;entryX=1;entryY=0;entryDx=0;entryDy=0;" edge="1" parent="1" source="0bjM78PT32i9VQrctK_N-9" target="0bjM78PT32i9VQrctK_N-4">
          <mxGeometry relative="1" as="geometry" />
        </mxCell>
        <mxCell id="0bjM78PT32i9VQrctK_N-9" value="Дата возврата" style="ellipse;whiteSpace=wrap;html=1;" vertex="1" parent="1">
          <mxGeometry x="730" y="340" width="70" height="50" as="geometry" />
        </mxCell>
        <mxCell id="0bjM78PT32i9VQrctK_N-18" style="edgeStyle=orthogonalEdgeStyle;rounded=0;orthogonalLoop=1;jettySize=auto;html=1;entryX=0.5;entryY=1;entryDx=0;entryDy=0;" edge="1" parent="1" source="0bjM78PT32i9VQrctK_N-10" target="0bjM78PT32i9VQrctK_N-7">
          <mxGeometry relative="1" as="geometry" />
        </mxCell>
        <mxCell id="0bjM78PT32i9VQrctK_N-10" value="Автор" style="rounded=0;whiteSpace=wrap;html=1;" vertex="1" parent="1">
          <mxGeometry x="640" y="600" width="90" height="25" as="geometry" />
        </mxCell>
        <mxCell id="0bjM78PT32i9VQrctK_N-16" style="edgeStyle=orthogonalEdgeStyle;rounded=0;orthogonalLoop=1;jettySize=auto;html=1;" edge="1" parent="1" source="0bjM78PT32i9VQrctK_N-11" target="0bjM78PT32i9VQrctK_N-13">
          <mxGeometry relative="1" as="geometry" />
        </mxCell>
        <mxCell id="0bjM78PT32i9VQrctK_N-11" value="Тип книги" style="rounded=0;whiteSpace=wrap;html=1;" vertex="1" parent="1">
          <mxGeometry x="720" y="550" width="90" height="25" as="geometry" />
        </mxCell>
        <mxCell id="0bjM78PT32i9VQrctK_N-17" style="edgeStyle=orthogonalEdgeStyle;rounded=0;orthogonalLoop=1;jettySize=auto;html=1;" edge="1" parent="1" source="0bjM78PT32i9VQrctK_N-13" target="0bjM78PT32i9VQrctK_N-4">
          <mxGeometry relative="1" as="geometry" />
        </mxCell>
        <mxCell id="0bjM78PT32i9VQrctK_N-13" value="Включает" style="rhombus;whiteSpace=wrap;html=1;" vertex="1" parent="1">
          <mxGeometry x="670" y="420" width="80" height="40" as="geometry" />
        </mxCell>
        <mxCell id="0bjM78PT32i9VQrctK_N-21" style="edgeStyle=orthogonalEdgeStyle;rounded=0;orthogonalLoop=1;jettySize=auto;html=1;entryX=0.5;entryY=1;entryDx=0;entryDy=0;" edge="1" parent="1" source="0bjM78PT32i9VQrctK_N-14" target="0bjM78PT32i9VQrctK_N-4">
          <mxGeometry relative="1" as="geometry" />
        </mxCell>
        <mxCell id="0bjM78PT32i9VQrctK_N-14" value="Включает" style="rhombus;whiteSpace=wrap;html=1;" vertex="1" parent="1">
          <mxGeometry x="480" y="535" width="80" height="40" as="geometry" />
        </mxCell>
        <mxCell id="0bjM78PT32i9VQrctK_N-26" style="edgeStyle=orthogonalEdgeStyle;rounded=0;orthogonalLoop=1;jettySize=auto;html=1;entryX=0.75;entryY=0;entryDx=0;entryDy=0;" edge="1" parent="1" source="0bjM78PT32i9VQrctK_N-25" target="0bjM78PT32i9VQrctK_N-4">
          <mxGeometry relative="1" as="geometry" />
        </mxCell>
        <mxCell id="0bjM78PT32i9VQrctK_N-25" value="Доступность книги" style="ellipse;whiteSpace=wrap;html=1;" vertex="1" parent="1">
          <mxGeometry x="700" y="270" width="120" height="40" as="geometry" />
        </mxCell>
        <mxCell id="0bjM78PT32i9VQrctK_N-30" style="edgeStyle=orthogonalEdgeStyle;rounded=0;orthogonalLoop=1;jettySize=auto;html=1;entryX=0.25;entryY=1;entryDx=0;entryDy=0;" edge="1" parent="1" source="0bjM78PT32i9VQrctK_N-29" target="0bjM78PT32i9VQrctK_N-5">
          <mxGeometry relative="1" as="geometry" />
        </mxCell>
        <mxCell id="0bjM78PT32i9VQrctK_N-29" value="Название" style="ellipse;whiteSpace=wrap;html=1;" vertex="1" parent="1">
          <mxGeometry x="500" y="700" width="70" height="50" as="geometry" />
        </mxCell>
        <mxCell id="0bjM78PT32i9VQrctK_N-33" style="edgeStyle=orthogonalEdgeStyle;rounded=0;orthogonalLoop=1;jettySize=auto;html=1;" edge="1" parent="1" source="0bjM78PT32i9VQrctK_N-31" target="0bjM78PT32i9VQrctK_N-10">
          <mxGeometry relative="1" as="geometry" />
        </mxCell>
        <mxCell id="0bjM78PT32i9VQrctK_N-31" value="Имя" style="ellipse;whiteSpace=wrap;html=1;" vertex="1" parent="1">
          <mxGeometry x="610" y="720" width="60" height="30" as="geometry" />
        </mxCell>
        <mxCell id="0bjM78PT32i9VQrctK_N-34" style="edgeStyle=orthogonalEdgeStyle;rounded=0;orthogonalLoop=1;jettySize=auto;html=1;entryX=0.75;entryY=1;entryDx=0;entryDy=0;" edge="1" parent="1" source="0bjM78PT32i9VQrctK_N-32" target="0bjM78PT32i9VQrctK_N-10">
          <mxGeometry relative="1" as="geometry" />
        </mxCell>
        <mxCell id="0bjM78PT32i9VQrctK_N-32" value="Фамилия" style="ellipse;whiteSpace=wrap;html=1;" vertex="1" parent="1">
          <mxGeometry x="700" y="720" width="90" height="30" as="geometry" />
        </mxCell>
        <mxCell id="0bjM78PT32i9VQrctK_N-36" style="edgeStyle=orthogonalEdgeStyle;rounded=0;orthogonalLoop=1;jettySize=auto;html=1;entryX=0.644;entryY=1;entryDx=0;entryDy=0;entryPerimeter=0;" edge="1" parent="1" source="0bjM78PT32i9VQrctK_N-35" target="0bjM78PT32i9VQrctK_N-11">
          <mxGeometry relative="1" as="geometry">
            <mxPoint x="788" y="575" as="targetPoint" />
          </mxGeometry>
        </mxCell>
        <mxCell id="0bjM78PT32i9VQrctK_N-35" value="Название" style="ellipse;whiteSpace=wrap;html=1;" vertex="1" parent="1">
          <mxGeometry x="750" y="612.5" width="70" height="50" as="geometry" />
        </mxCell>
        <mxCell id="0bjM78PT32i9VQrctK_N-42" style="edgeStyle=orthogonalEdgeStyle;rounded=0;orthogonalLoop=1;jettySize=auto;html=1;" edge="1" parent="1" source="0bjM78PT32i9VQrctK_N-37" target="0bjM78PT32i9VQrctK_N-1">
          <mxGeometry relative="1" as="geometry" />
        </mxCell>
        <mxCell id="0bjM78PT32i9VQrctK_N-37" value="Имя" style="ellipse;whiteSpace=wrap;html=1;" vertex="1" parent="1">
          <mxGeometry x="20" y="570" width="60" height="30" as="geometry" />
        </mxCell>
        <mxCell id="0bjM78PT32i9VQrctK_N-41" style="edgeStyle=orthogonalEdgeStyle;rounded=0;orthogonalLoop=1;jettySize=auto;html=1;entryX=0.342;entryY=1.017;entryDx=0;entryDy=0;entryPerimeter=0;" edge="1" parent="1" source="0bjM78PT32i9VQrctK_N-38" target="0bjM78PT32i9VQrctK_N-1">
          <mxGeometry relative="1" as="geometry" />
        </mxCell>
        <mxCell id="0bjM78PT32i9VQrctK_N-38" value="Фамилия" style="ellipse;whiteSpace=wrap;html=1;" vertex="1" parent="1">
          <mxGeometry x="50" y="680" width="90" height="30" as="geometry" />
        </mxCell>
        <mxCell id="0bjM78PT32i9VQrctK_N-40" style="edgeStyle=orthogonalEdgeStyle;rounded=0;orthogonalLoop=1;jettySize=auto;html=1;entryX=0.842;entryY=0.983;entryDx=0;entryDy=0;entryPerimeter=0;" edge="1" parent="1" source="0bjM78PT32i9VQrctK_N-39" target="0bjM78PT32i9VQrctK_N-1">
          <mxGeometry relative="1" as="geometry" />
        </mxCell>
        <mxCell id="0bjM78PT32i9VQrctK_N-39" value="Почта" style="ellipse;whiteSpace=wrap;html=1;" vertex="1" parent="1">
          <mxGeometry x="190" y="675" width="60" height="40" as="geometry" />
        </mxCell>
        <mxCell id="0bjM78PT32i9VQrctK_N-49" style="edgeStyle=orthogonalEdgeStyle;rounded=0;orthogonalLoop=1;jettySize=auto;html=1;entryX=0.5;entryY=0;entryDx=0;entryDy=0;" edge="1" parent="1" source="0bjM78PT32i9VQrctK_N-43" target="0bjM78PT32i9VQrctK_N-51">
          <mxGeometry relative="1" as="geometry">
            <mxPoint x="520" y="300" as="targetPoint" />
          </mxGeometry>
        </mxCell>
        <mxCell id="0bjM78PT32i9VQrctK_N-43" value="Локация" style="rounded=0;whiteSpace=wrap;html=1;" vertex="1" parent="1">
          <mxGeometry x="330" y="230" width="100" height="40" as="geometry" />
        </mxCell>
        <mxCell id="0bjM78PT32i9VQrctK_N-47" style="edgeStyle=orthogonalEdgeStyle;rounded=0;orthogonalLoop=1;jettySize=auto;html=1;entryX=0;entryY=0.5;entryDx=0;entryDy=0;" edge="1" parent="1" source="0bjM78PT32i9VQrctK_N-44" target="0bjM78PT32i9VQrctK_N-43">
          <mxGeometry relative="1" as="geometry" />
        </mxCell>
        <mxCell id="0bjM78PT32i9VQrctK_N-44" value="Номер" style="ellipse;whiteSpace=wrap;html=1;" vertex="1" parent="1">
          <mxGeometry x="270" y="160" width="60" height="30" as="geometry" />
        </mxCell>
        <mxCell id="0bjM78PT32i9VQrctK_N-45" style="edgeStyle=orthogonalEdgeStyle;rounded=0;orthogonalLoop=1;jettySize=auto;html=1;exitX=0;exitY=0.25;exitDx=0;exitDy=0;entryX=0;entryY=0;entryDx=0;entryDy=0;" edge="1" parent="1" source="0bjM78PT32i9VQrctK_N-43" target="0bjM78PT32i9VQrctK_N-43">
          <mxGeometry relative="1" as="geometry" />
        </mxCell>
        <mxCell id="0bjM78PT32i9VQrctK_N-48" style="edgeStyle=orthogonalEdgeStyle;rounded=0;orthogonalLoop=1;jettySize=auto;html=1;" edge="1" parent="1" source="0bjM78PT32i9VQrctK_N-46" target="0bjM78PT32i9VQrctK_N-43">
          <mxGeometry relative="1" as="geometry" />
        </mxCell>
        <mxCell id="0bjM78PT32i9VQrctK_N-46" value="Ряд" style="ellipse;whiteSpace=wrap;html=1;" vertex="1" parent="1">
          <mxGeometry x="390" y="150" width="60" height="30" as="geometry" />
        </mxCell>
        <mxCell id="0bjM78PT32i9VQrctK_N-52" style="edgeStyle=orthogonalEdgeStyle;rounded=0;orthogonalLoop=1;jettySize=auto;html=1;entryX=0.114;entryY=-0.067;entryDx=0;entryDy=0;entryPerimeter=0;" edge="1" parent="1" source="0bjM78PT32i9VQrctK_N-51" target="0bjM78PT32i9VQrctK_N-4">
          <mxGeometry relative="1" as="geometry" />
        </mxCell>
        <mxCell id="0bjM78PT32i9VQrctK_N-51" value="Включает" style="rhombus;whiteSpace=wrap;html=1;" vertex="1" parent="1">
          <mxGeometry x="450" y="310" width="80" height="40" as="geometry" />
        </mxCell>
        <mxCell id="0bjM78PT32i9VQrctK_N-55" style="edgeStyle=orthogonalEdgeStyle;rounded=0;orthogonalLoop=1;jettySize=auto;html=1;" edge="1" parent="1" source="0bjM78PT32i9VQrctK_N-53" target="0bjM78PT32i9VQrctK_N-54">
          <mxGeometry relative="1" as="geometry" />
        </mxCell>
        <mxCell id="0bjM78PT32i9VQrctK_N-53" value="Издатель" style="rounded=0;whiteSpace=wrap;html=1;" vertex="1" parent="1">
          <mxGeometry x="370" y="545" width="80" height="35" as="geometry" />
        </mxCell>
        <mxCell id="0bjM78PT32i9VQrctK_N-56" style="edgeStyle=orthogonalEdgeStyle;rounded=0;orthogonalLoop=1;jettySize=auto;html=1;entryX=0.25;entryY=1;entryDx=0;entryDy=0;" edge="1" parent="1" source="0bjM78PT32i9VQrctK_N-54" target="0bjM78PT32i9VQrctK_N-4">
          <mxGeometry relative="1" as="geometry" />
        </mxCell>
        <mxCell id="0bjM78PT32i9VQrctK_N-54" value="Включает" style="rhombus;whiteSpace=wrap;html=1;" vertex="1" parent="1">
          <mxGeometry x="380" y="460" width="80" height="40" as="geometry" />
        </mxCell>
      </root>
    </mxGraphModel>
  </diagram>
</mxfile>
